<svg version="1.2" xmlns="http://www.w3.org/2000/svg" viewBox="0 0 800 800" width="800" height="800">
	<style>
		.s0 { fill: none;stroke: #1c274c;stroke-linecap: round;stroke-width: 50 } 
		.s1 { fill: #1c274c } 
	</style>
	<path class="s0" d="m450 66.67c0 0 77.78 7.07 176.78 106.06 98.99 99 106.06 176.78 106.06 176.78"/>
	<path class="s0" d="m473.57 184.52c0 0 33 9.43 82.49 58.93 49.5 49.49 58.93 82.49 58.93 82.49"/>
	<path class="s1" d="m521.48 518.12l15.19-15.98-36.26-34.43-15.18 15.98zm15.18-15.98c12.85-13.53 32.87-16.57 49.96-6.73l24.94-43.34c-36.61-21.07-82.03-15.03-111.15 15.63zm49.96-6.73l63.68 36.66 24.94-43.33-63.68-36.66zm63.68 36.66c27.36 15.75 32.72 54.49 12.29 75.99l36.26 34.44c43.49-45.8 30.83-122.44-23.6-153.77zm12.29 76l-47.36 49.85 36.26 34.44 47.35-49.86zm-47.35 49.86c-9.3 9.79-19.03 15.04-28.49 15.97l4.91 49.76c24.9-2.46 45.05-15.74 59.83-31.3zm-28.49 15.97c-47.83 4.73-172.64 0.7-308.12-141.93l-36.25 34.43c147.65 155.45 288.49 163.26 349.28 157.26zm-308.11-141.93c-129.21-136.03-150.88-250.77-153.58-301.1l-49.93 2.68c3.31 61.64 29.48 187.81 167.25 332.85zm-153.58-301.1c-0.71-13.31 5.09-26.64 16.13-38.26l-36.25-34.44c-17.86 18.81-31.44 44.93-29.8 75.38zm199.42 79.87l9.56-10.07-36.25-34.43-9.56 10.06zm17.07-135.38l-42.04-59.45-40.82 28.87 42.03 59.44zm-42.03-59.44c-33.79-47.79-101.39-55.85-142.27-12.82l36.26 34.43c17.42-18.35 48.11-16.9 65.18 7.25zm-142.26-12.82l-52.32 55.09 36.25 34.43 52.32-55.08zm-34.19 72.3l-18.13-17.22zm183.29 118.13c-18.12-17.21-18.14-17.19-18.17-17.17q-0.02 0.02-0.04 0.05-0.05 0.05-0.1 0.11-0.1 0.1-0.21 0.22-0.21 0.23-0.44 0.5-0.47 0.54-1.02 1.23-1.11 1.39-2.43 3.42c-1.74 2.73-3.64 6.32-5.24 10.82-3.25 9.15-5.03 21.27-2.81 36.41 4.36 29.73 23.84 69.72 74.75 123.32l36.25-34.43c-47.58-50.1-59.3-80.96-61.53-96.14-1.07-7.33 0.02-11.19 0.45-12.4 0.24-0.68 0.4-0.87 0.24-0.63q-0.1 0.18-0.47 0.66-0.19 0.24-0.46 0.55-0.14 0.16-0.3 0.33-0.08 0.09-0.16 0.18-0.04 0.05-0.09 0.09-0.03 0.03-0.04 0.05c-0.03 0.03-0.05 0.05-18.18-17.17zm44.29 158.91c50.76 53.45 89.1 74.46 118.35 79.21 15.01 2.43 27.16 0.49 36.36-3.14 4.5-1.77 8.05-3.86 10.72-5.75 1.34-0.95 2.45-1.84 3.34-2.63q0.67-0.59 1.19-1.09 0.26-0.25 0.48-0.47 0.11-0.11 0.21-0.22 0.05-0.05 0.1-0.1 0.03-0.03 0.04-0.05c0.03-0.02 0.05-0.05-18.08-17.26-18.12-17.22-18.1-17.24-18.08-17.27q0.02-0.02 0.05-0.05 0.04-0.04 0.09-0.09 0.09-0.09 0.17-0.17 0.17-0.17 0.32-0.32 0.3-0.29 0.54-0.5 0.48-0.41 0.71-0.56c0.31-0.23 0.28-0.15-0.15 0.02-0.64 0.25-3.67 1.32-9.99 0.29-13.42-2.18-42.38-14.02-90.12-64.28zm248.45 21.33l-12.47 21.67zm81.63 151.53l18.13 17.22zm-91.51 73.49l2.45 24.88zm-328.7-149.6l18.13-17.21zm73.53-248.52c32.25-33.96 34.54-87.1 7.51-125.32l-40.82 28.87c14.07 19.9 11.91 46.38-2.94 62.01zm-12.9-110.88l20.41-14.43zm-145.76-69.49l18.13 17.22zm193.38 314.91l18.13-17.22zm134.59 65.71l-18.13-17.21zm-224.25-370.59l-20.41 14.43zm-179.01 101.88l-24.97 1.34zm533.28 442.94l-18.13-17.22zm-317.45-391.7l18.12 17.22zm346.86 226.96l-12.47 21.67zm-144.23-25.48l18.12 17.22z"/>
</svg>